<?xml version="1.0" encoding="utf-8"?>
<!-- Generator: Adobe Illustrator 24.0.1, SVG Export Plug-In . SVG Version: 6.00 Build 0)  -->
<svg version="1.1" id="Layer_1" xmlns="http://www.w3.org/2000/svg" xmlns:xlink="http://www.w3.org/1999/xlink" x="0px" y="0px"
	 viewBox="0 0 576 153.24" style="enable-background:new 0 0 576 153.24;" xml:space="preserve">
<style type="text/css">
	.st0{fill:#FFFFFF;}
	.st1{fill:#FFB30B;}
	.st2{fill:#FDCE03;}
</style>
<g>
	<g>
		<g>
			<path class="st0" d="M288.62,110.52h4.37v3.06c0.44-0.66,0.96-1.22,1.62-1.75c1.09-0.87,2.71-1.75,4.93-1.75
				c4.8,0,8.3,3.45,8.3,9.17v12.23h-4.37v-12.23c0-3.1-1.97-5.02-4.8-5.02c-3.28,0-5.68,2.4-5.68,5.89v11.35h-4.37V110.52z"/>
			<path class="st0" d="M332.5,127.98c-0.57,0.74-1.31,1.4-2.18,1.96c-1.53,1-3.67,1.96-6.77,1.96c-6.11,0-10.92-4.8-10.92-10.92
				c0-6.11,4.8-10.92,10.7-10.92c5.94,0,10.26,4.32,10.26,10.26c0,0.65-0.09,1.18-0.13,1.57l-0.09,0.61h-16.16
				c0.48,2.84,3.01,5.24,6.55,5.24c1.88,0,3.41-0.7,4.45-1.4c0.61-0.39,1.18-0.87,1.66-1.44L332.5,127.98z M329.01,118.81
				c-0.65-2.84-2.58-4.8-5.68-4.8c-3.32,0-5.24,1.96-6.11,4.8H329.01z"/>
			<path class="st0" d="M340.58,114.66h-3.93v-4.15h2.4c1.35,0,1.96-0.65,1.96-2.4v-4.59h3.93v6.99h4.8v4.15h-4.8v9.83
				c0,2.18,1,3.27,3.06,3.27c0.65,0,1.22-0.13,1.7-0.31l0.7-0.35v4.15l-0.92,0.35c-0.57,0.17-1.35,0.31-2.36,0.31
				c-4.19,0-6.55-2.4-6.55-6.99V114.66z"/>
			<path class="st0" d="M352.58,110.52h4.8l4.8,14.19l4.59-14.19h3.93l4.58,14.19l4.8-14.19h4.8l-7.42,20.96h-4.15l-4.59-13.97
				l-4.58,13.97h-4.15L352.58,110.52z"/>
			<path class="st0" d="M397.99,110.08c6.11,0,10.92,4.8,10.92,10.92c0,6.11-4.8,10.92-10.92,10.92s-10.92-4.8-10.92-10.92
				C387.08,114.88,391.88,110.08,397.99,110.08z M404.54,121c0-3.97-2.84-6.77-6.55-6.77c-3.71,0-6.55,2.79-6.55,6.77
				s2.84,6.77,6.55,6.77C401.71,127.76,404.54,124.97,404.54,121z"/>
			<path class="st0" d="M413.71,110.52h4.37v2.84c0.48-0.57,1-1.14,1.62-1.62c1.05-0.83,2.62-1.66,4.72-1.66h1.09v4.58l-0.57-0.09
				c-0.35-0.04-0.7-0.13-1.18-0.13c-3.01,0-5.68,2.62-5.68,6.33v10.7h-4.37V110.52z"/>
			<path class="st0" d="M429.65,100.91h4.37v19.21l8.95-9.61h5.46l-8.08,8.51l8.73,12.44h-5.02l-6.55-9.39l-3.49,3.71v5.68h-4.37
				V100.91z"/>
		</g>
		<g>
			<path class="st0" d="M201.64,28.9h9.24v40.67l18.95-20.33h11.55l-17.1,18.02l18.49,26.34h-10.63l-13.86-19.87l-7.39,7.86v12.02
				h-9.24V28.9z"/>
			<path class="st0" d="M268.65,48.32c12.94,0,23.11,10.17,23.11,23.11s-10.17,23.11-23.11,23.11c-12.94,0-23.11-10.17-23.11-23.11
				S255.71,48.32,268.65,48.32z M282.52,71.42c0-8.41-6.01-14.33-13.86-14.33c-7.86,0-13.86,5.92-13.86,14.33
				c0,8.41,6.01,14.33,13.86,14.33C276.51,85.75,282.52,79.83,282.52,71.42z"/>
			<path class="st0" d="M302.39,28.9h9.24v40.67l18.95-20.33h11.55l-17.1,18.02l18.49,26.34h-10.63l-13.86-19.87l-7.39,7.86v12.02
				h-9.24V28.9z"/>
			<path class="st0" d="M369.4,48.32c12.94,0,23.11,10.17,23.11,23.11s-10.17,23.11-23.11,23.11c-12.94,0-23.11-10.17-23.11-23.11
				S356.46,48.32,369.4,48.32z M383.26,71.42c0-8.41-6.01-14.33-13.86-14.33c-7.86,0-13.86,5.92-13.86,14.33
				c0,8.41,6.01,14.33,13.86,14.33C377.26,85.75,383.26,79.83,383.26,71.42z"/>
			<path class="st0" d="M402.67,49.24h9.24v6.47c0.92-1.39,2.03-2.59,3.42-3.7c2.31-1.85,5.73-3.7,10.44-3.7
				c10.17,0,17.56,7.3,17.56,19.41v25.88h-9.24V67.73c0-6.56-4.16-10.63-10.17-10.63c-6.93,0-12.02,5.08-12.02,12.48v24.03h-9.24
				V49.24z"/>
			<path class="st0" d="M456.28,49.24h9.24v25.88c0,6.56,4.16,10.63,10.17,10.63c6.93,0,12.02-5.08,12.02-12.48V49.24h9.24v44.37
				h-9.24v-6.47c-1.02,1.39-2.13,2.59-3.51,3.7c-2.31,1.85-5.64,3.7-10.35,3.7c-10.17,0-17.56-7.3-17.56-19.41V49.24z"/>
			<path class="st0" d="M514.51,58.02h-8.32v-8.78h5.08c2.87,0,4.16-1.39,4.16-5.08v-9.71h8.32v14.79h10.17v8.78h-10.17v20.8
				c0,4.62,2.13,6.93,6.47,6.93c1.39,0,2.59-0.28,3.6-0.65l1.48-0.74v8.78l-1.94,0.74c-1.2,0.37-2.87,0.65-4.99,0.65
				c-8.87,0-13.86-5.08-13.86-14.79V58.02z"/>
		</g>
	</g>
	<g>
		<path class="st1" d="M126.87,69.15l45.59-45.77h-25.08L98.36,76.3V35.99v-2.86v-7.67v-2.86v-8.32h-4.89v8.56
			c-28.67,2.61-51.14,26.7-51.14,56.05c0,29.35,22.46,53.44,51.14,56.05v7.15h4.89v-6.91v-2.86v-7.67v-2.86V99.96l16.67-18.19
			l36.3,52.08h21.3L126.87,69.15z"/>
		<path class="st2" d="M55.5,78.87c0,11.85,4.8,22.57,12.56,30.33c6.62,6.62,15.39,11.07,25.17,12.25V36.3
			c-9.78,1.17-18.55,5.62-25.17,12.24C60.3,56.31,55.5,67.02,55.5,78.87z"/>
		<path class="st2" d="M44.96,78.88c0,14.76,5.98,28.11,15.65,37.78c8.53,8.53,19.93,14.18,32.62,15.4v-7.72
			c-22.84-2.57-40.6-21.94-40.6-45.46c0-23.53,17.76-42.9,40.6-45.46v-7.72c-12.7,1.22-24.09,6.87-32.62,15.4
			C50.94,50.77,44.96,64.12,44.96,78.88z"/>
	</g>
</g>
</svg>
